<svg xmlns="http://www.w3.org/2000/svg" width="988" height="1024">
  <path fill="none" stroke="#d8ccbf" stroke-linecap="round" stroke-linejoin="round" stroke-width="56.994" d="M831.127 833.829H384.424c-33.211 0-60.133-30.564-60.133-68.266V402.286l283.485-212.114 283.485 212.114v363.277c0 37.702-26.922 68.266-60.133 68.266z"/>
  <path fill="none" stroke="#d8ccbf" stroke-linecap="round" stroke-linejoin="round" stroke-width="56.994" d="M603.48 833.829H156.776c-33.211 0-60.133-30.564-60.133-68.266V402.286l283.485-212.114 283.485 212.114v363.277c0 37.702-26.922 68.266-60.133 68.266z"/>
  <path fill="#d8ccbf" d="M380.041 712.873c-40.662 0-78.569-22.843-101.403-61.096-5.988-10.033-3.678-23.677 5.158-30.475 8.84-6.805 20.858-4.176 26.846 5.853 15.632 26.193 41.576 41.832 69.398 41.832s53.765-15.639 69.396-41.832c5.988-10.027 18.008-12.655 26.846-5.853 8.838 6.798 11.146 20.442 5.158 30.475-22.834 38.253-60.741 61.096-101.401 61.096zM501.811 524.839c15.542 0 28.144-14.304 28.144-31.949s-12.601-31.953-28.144-31.953c-15.542 0-28.142 14.308-28.142 31.953s12.6 31.949 28.142 31.949zM286.8 492.89c0 17.645-12.601 31.949-28.144 31.949s-28.142-14.304-28.142-31.949c0-17.645 12.6-31.953 28.142-31.953S286.8 475.245 286.8 492.89z"/>
  <path fill="#d8ccbf" d="M499.647 476.274c-8.082 0-14.634 7.44-14.634 16.614 0 9.176 6.552 16.614 14.634 16.614h4.328c8.084 0 14.636-7.438 14.636-16.614 0-9.174-6.552-16.614-14.636-16.614h-4.328zM256.492 476.274c-8.082 0-14.634 7.44-14.634 16.614 0 9.176 6.552 16.614 14.634 16.614h4.328c8.084 0 14.636-7.438 14.636-16.614 0-9.174-6.552-16.614-14.636-16.614h-4.328z"/>
</svg>
