<svg xmlns="http://www.w3.org/2000/svg" aria-hidden="true" style="position:absolute;width:0;height:0;overflow:hidden">
  <defs>
    <symbol id="icon-untitled" viewBox="0 0 27 32">
      <path d="M15.413.895v22.993l8.839-8.867 2.182 2.154-12.559 12.532L1.344 17.175l2.126-2.154 8.867 8.867V.895h3.077z"/>
    </symbol>
    <symbol id="icon-Frame-1" viewBox="0 0 35 32">
      <path fill="none" stroke="#fff" stroke-linecap="round" stroke-linejoin="round" stroke-width="17.454" d="M25.425 26.057H9.64a2.129 2.129 0 0 1-2.125-2.133V12.572l10.017-6.629 10.017 6.629v11.352a2.129 2.129 0 0 1-2.125 2.133z" style="stroke:var(--color1, #fff)"/>
      <path fill="#7837f3" d="M17.097 22.289a4.32 4.32 0 0 1-3.583-1.909c-.212-.313-.13-.74.182-.952s.737-.131.949.183a2.954 2.954 0 0 0 4.904 0c.212-.313.636-.396.949-.183s.394.639.182.952a4.32 4.32 0 0 1-3.583 1.909zM21.4 16.401c.549 0 .994-.447.994-.998s-.445-.999-.994-.999-.994.447-.994.999c0 .551.445.998.994.998zM13.802 15.403c0 .551-.445.998-.994.998s-.995-.447-.995-.998c0-.551.445-.999.995-.999s.994.447.994.999z" style="fill:var(--color2, #7837f3)"/>
      <path fill="#7837f3" d="M21.323 14.884a.518.518 0 0 0 0 1.038h.153a.518.518 0 0 0 0-1.038h-.153zM12.731 14.884a.518.518 0 0 0 0 1.038h.153a.518.518 0 0 0 0-1.038h-.153z" style="fill:var(--color2, #7837f3)"/>
    </symbol>
    <symbol id="icon-Frame" viewBox="0 0 31 32">
      <path stroke-linecap="round" stroke-linejoin="round" stroke-width="1.781" d="M25.973 26.057H12.014c-1.038 0-1.879-.955-1.879-2.133V12.572l8.859-6.629 8.859 6.629v11.352c0 1.178-.841 2.133-1.879 2.133z"/>
      <path stroke-linecap="round" stroke-linejoin="round" stroke-width="1.781" d="M18.859 26.057H4.899c-1.038 0-1.879-.955-1.879-2.133V12.572l8.859-6.629 8.859 6.629v11.352c0 1.178-.841 2.133-1.879 2.133z"/>
      <path d="M11.876 22.277c-1.271 0-2.455-.714-3.169-1.909-.187-.314-.115-.74.161-.952s.652-.131.839.183c.489.819 1.299 1.307 2.169 1.307s1.68-.489 2.169-1.307c.187-.313.563-.395.839-.183s.348.639.161.952c-.714 1.195-1.898 1.909-3.169 1.909zM15.682 16.401c.486 0 .879-.447.879-.998s-.394-.999-.88-.999-.879.447-.879.999.394.998.879.998zM8.963 15.403c0 .551-.394.998-.88.998s-.879-.447-.879-.998c0-.551.394-.999.879-.999s.88.447.88.999z"/>
      <path d="M15.614 14.884c-.253 0-.457.232-.457.519s.205.519.457.519h.135c.253 0 .457-.232.457-.519s-.205-.519-.457-.519h-.135zM8.015 14.884c-.253 0-.457.232-.457.519s.205.519.457.519h.135c.253 0 .457-.232.457-.519s-.205-.519-.457-.519h-.135z"/>
    </symbol>
    <symbol id="icon-akar-icons_instagram-fill-1" viewBox="0 0 32 32">
      <path d="M9.953 1.421c1.564-.072 2.063-.088 6.047-.088s4.483.017 6.045.088c1.563.071 2.629.32 3.563.681a7.218 7.218 0 0 1 2.597 1.693 7.158 7.158 0 0 1 1.691 2.596c.363.933.611 2 .683 3.56.072 1.567.088 2.065.088 6.048 0 3.984-.017 4.483-.088 6.047-.071 1.56-.32 2.627-.683 3.56a7.234 7.234 0 0 1-1.69 2.598l-.001.001a7.187 7.187 0 0 1-2.597 1.691c-.933.363-2 .611-3.56.683-1.565.072-2.064.088-6.048.088s-4.483-.017-6.047-.088c-1.56-.071-2.627-.32-3.56-.683a7.234 7.234 0 0 1-2.598-1.69l-.001-.001a7.196 7.196 0 0 1-1.675-2.548l-.017-.049c-.361-.933-.609-2-.681-3.56-.072-1.567-.088-2.065-.088-6.048 0-3.984.017-4.483.088-6.045s.32-2.629.681-3.563a7.243 7.243 0 0 1 1.692-2.596l.001-.001A7.192 7.192 0 0 1 6.342 2.12l.049-.017c.933-.361 2-.609 3.56-.681h.001zm11.974 2.64C20.38 3.99 19.916 3.976 16 3.976s-4.38.015-5.927.085c-1.431.065-2.207.304-2.724.505a4.57 4.57 0 0 0-1.687 1.096 4.553 4.553 0 0 0-1.086 1.655l-.01.031c-.201.517-.44 1.293-.505 2.724-.071 1.547-.085 2.011-.085 5.927s.015 4.38.085 5.927c.065 1.431.304 2.207.505 2.724a4.56 4.56 0 0 0 1.096 1.687 4.551 4.551 0 0 0 1.687 1.096c.517.201 1.293.44 2.724.505 1.547.071 2.009.085 5.927.085s4.38-.015 5.927-.085c1.431-.065 2.207-.304 2.724-.505a4.57 4.57 0 0 0 1.687-1.096 4.551 4.551 0 0 0 1.096-1.687c.201-.517.44-1.293.505-2.724.071-1.547.085-2.011.085-5.927s-.015-4.38-.085-5.927c-.065-1.431-.304-2.207-.505-2.724a4.57 4.57 0 0 0-1.096-1.687 4.566 4.566 0 0 0-1.655-1.086l-.031-.01c-.517-.201-1.293-.44-2.724-.505zm-7.8 16.46a4.893 4.893 0 1 0 3.555-9.117l-.034-.011a4.893 4.893 0 0 0-3.553 9.115l.032.012zm-3.458-9.852a7.54 7.54 0 0 1 10.662 10.662 7.54 7.54 0 0 1-10.662-10.662zm14.542-1.085a1.782 1.782 0 1 0-2.447-2.591l.001-.001a1.782 1.782 0 1 0 2.447 2.591l-.001.001z"/>
    </symbol>
    <symbol id="icon-cil_arrow-right-1" viewBox="0 0 32 32">
      <path d="M22.492 7.586 21.078 9l6 6H1v2h26.078l-6 6 1.414 1.414L30.906 16l-8.414-8.414z"/>
    </symbol>
    <symbol id="icon-facebook" viewBox="0 0 32 32">
      <path d="M21.33 5.314h2.92V.226A36.551 36.551 0 0 0 20.125 0h-.138.007C15.782 0 12.9 2.65 12.9 7.52V12H8.25v5.688h4.648V32h5.698V17.69h4.46l.708-5.69h-5.17V8.08c.002-1.644.444-2.768 2.736-2.768z"/>
    </symbol>
    <symbol id="icon-twitter" viewBox="0 0 32 32">
      <path d="M32 6.078c-1.1.494-2.376.858-3.712 1.029l-.068.007a6.56 6.56 0 0 0 2.873-3.58l.013-.046a12.858 12.858 0 0 1-4.076 1.574l-.084.014A6.56 6.56 0 0 0 15.598 9.56c0 .52.044 1.02.152 1.496A18.554 18.554 0 0 1 2.255 4.228l-.027-.034a6.496 6.496 0 0 0-.895 3.311 6.562 6.562 0 0 0 2.888 5.442l.023.015a6.465 6.465 0 0 1-2.997-.823l.033.017v.072a6.592 6.592 0 0 0 5.213 6.438l.043.008a6.408 6.408 0 0 1-1.669.216h-.054.003a5.842 5.842 0 0 1-1.279-.118l.037.006c.873 2.624 3.273 4.496 6.121 4.57h.009a13.098 13.098 0 0 1-8.12 2.798h-.015.001c-.538 0-1.054-.024-1.57-.09C2.826 27.902 6.287 29 10.004 29h.063-.003c12.072 0 18.672-10 18.672-18.668 0-.29-.01-.57-.024-.848a13.186 13.186 0 0 0 3.258-3.359l.03-.047z"/>
    </symbol>
    <symbol id="icon-Frame-2" viewBox="0 0 31 32">
    <path fill="none" stroke="#d8ccbf" style="stroke: var(--color1, #d8ccbf)" stroke-linejoin="round" stroke-linecap="round" stroke-miterlimit="4" stroke-width="1.7811" d="M25.973 26.057h-13.959c-1.038 0-1.879-0.955-1.879-2.133v-11.352l8.859-6.629 8.859 6.629v11.352c0 1.178-0.841 2.133-1.879 2.133z"></path>
    <path fill="none" stroke="#d8ccbf" style="stroke: var(--color1, #d8ccbf)" stroke-linejoin="round" stroke-linecap="round" stroke-miterlimit="4" stroke-width="1.7811" d="M18.859 26.057h-13.96c-1.038 0-1.879-0.955-1.879-2.133v-11.352l8.859-6.629 8.859 6.629v11.352c0 1.178-0.841 2.133-1.879 2.133z"></path>
    <path fill="#d8ccbf" style="fill: var(--color1, #d8ccbf)" d="M11.876 22.277c-1.271 0-2.455-0.714-3.169-1.909-0.187-0.314-0.115-0.74 0.161-0.952s0.652-0.131 0.839 0.183c0.489 0.819 1.299 1.307 2.169 1.307s1.68-0.489 2.169-1.307c0.187-0.313 0.563-0.395 0.839-0.183s0.348 0.639 0.161 0.952c-0.714 1.195-1.898 1.909-3.169 1.909z"></path>
    <path fill="#d8ccbf" style="fill: var(--color1, #d8ccbf)" d="M15.682 16.401c0.486 0 0.879-0.447 0.879-0.998s-0.394-0.999-0.88-0.999c-0.486 0-0.879 0.447-0.879 0.999s0.394 0.998 0.879 0.998z"></path>
    <path fill="#d8ccbf" style="fill: var(--color1, #d8ccbf)" d="M8.963 15.403c0 0.551-0.394 0.998-0.88 0.998s-0.879-0.447-0.879-0.998c0-0.551 0.394-0.999 0.879-0.999s0.88 0.447 0.88 0.999z"></path>
    <path fill="#d8ccbf" style="fill: var(--color1, #d8ccbf)" opacity="0.999996" d="M15.614 14.884c-0.253 0-0.457 0.232-0.457 0.519s0.205 0.519 0.457 0.519h0.135c0.253 0 0.457-0.232 0.457-0.519s-0.205-0.519-0.457-0.519h-0.135z"></path>
    <path fill="#d8ccbf" style="fill: var(--color1, #d8ccbf)" d="M8.015 14.884c-0.253 0-0.457 0.232-0.457 0.519s0.205 0.519 0.457 0.519h0.135c0.253 0 0.457-0.232 0.457-0.519s-0.205-0.519-0.457-0.519h-0.135z"></path>
    </symbol>
  </defs>
</svg>
